<?xml version="1.0" encoding="UTF-8" standalone="no" ?>
<!DOCTYPE svg PUBLIC "-//W3C//DTD SVG 1.1//EN" "http://www.w3.org/Graphics/SVG/1.1/DTD/svg11.dtd">
<svg xmlns="http://www.w3.org/2000/svg" xmlns:xlink="http://www.w3.org/1999/xlink" version="1.1" width="1080" height="1080" viewBox="0 0 1080 1080" xml:space="preserve">
<desc>Created with Fabric.js 5.2.4</desc>
<defs>
</defs>
<g transform="matrix(1 0 0 1 540 540)" id="047ebea4-a46e-476d-91e5-f36a3b8e5de5"  >
<rect style="stroke: none; stroke-width: 1; stroke-dasharray: none; stroke-linecap: butt; stroke-dashoffset: 0; stroke-linejoin: miter; stroke-miterlimit: 4; fill: rgb(255,255,255); fill-rule: nonzero; opacity: 1; visibility: hidden;" vector-effect="non-scaling-stroke"  x="-540" y="-540" rx="0" ry="0" width="1080" height="1080" />
</g>
<g transform="matrix(1 0 0 1 540 540)" id="1d5e005a-a1eb-4683-9db4-5ce16cb549a1"  >
</g>
<g transform="matrix(6.76 0 0 6.53 590.36 454.41)"  >
<g style="" vector-effect="non-scaling-stroke"   >
		<g transform="matrix(1 0 0 1 -34.39 0)"  >
<path style="stroke: none; stroke-width: 1; stroke-dasharray: none; stroke-linecap: butt; stroke-dashoffset: 0; stroke-linejoin: miter; stroke-miterlimit: 4; fill: rgb(37,99,235); fill-rule: evenodd; opacity: 1;" vector-effect="non-scaling-stroke"  transform=" translate(-20, -20)" d="M 0 20 C 0 31.046 8.954 40 20 40 C 31.046 40 40 31.046 40 20 C 40 8.954 31.046 0 20 0 C 8.954 0 0 8.954 0 20 Z M 20 36 C 12.736 36 6.679 30.837 5.295999999999999 23.98 C 4.97 22.358 6.343 21 8 21 L 32 21 C 33.657 21 35.031 22.357 34.704 23.98 C 33.32 30.838 27.264 36 20 36 Z" stroke-linecap="round" />
</g>
		<g transform="matrix(1 0 0 1 2.16 0.27)"  >
<path style="stroke: none; stroke-width: 1; stroke-dasharray: none; stroke-linecap: butt; stroke-dashoffset: 0; stroke-linejoin: miter; stroke-miterlimit: 4; fill: rgb(15,23,42); fill-rule: nonzero; opacity: 1;" vector-effect="non-scaling-stroke"  transform=" translate(-56.55, -20.27)" d="M 55.528 26.57 L 55.528 15.842 L 52 15.842 L 52 13.97 L 61.108000000000004 13.97 L 61.108000000000004 15.842 L 57.472 15.842 L 57.472 26.57 L 55.528 26.57 Z" stroke-linecap="round" />
</g>
		<g transform="matrix(1 0 0 1 41.54 -0.09)"  >
<path style="stroke: none; stroke-width: 1; stroke-dasharray: none; stroke-linecap: butt; stroke-dashoffset: 0; stroke-linejoin: miter; stroke-miterlimit: 4; fill: rgb(37,99,235); fill-rule: nonzero; opacity: 1;" vector-effect="non-scaling-stroke"  transform=" translate(-95.93, -19.91)" d="M 83.084 26.57 L 83.084 13.97 L 88.43 13.97 C 89.174 13.97 89.846 14.15 90.44600000000001 14.510000000000002 C 91.04891471510913 14.84893856395971 91.5470614360403 15.34708528489087 91.88600000000001 15.949999999999998 C 92.24600000000001 16.562 92.42600000000002 17.252000000000002 92.42600000000002 18.02 C 92.42600000000002 18.8 92.24600000000001 19.502 91.88600000000001 20.125999999999998 C 91.54577430759801 20.741997672859853 91.04906108300055 21.257337643379703 90.44600000000001 21.619999999999997 C 89.84600000000002 21.979999999999997 89.174 22.159999999999997 88.43 22.159999999999997 L 85.784 22.159999999999997 L 85.784 26.569999999999997 L 83.084 26.569999999999997 Z M 85.748 19.73 L 88.12400000000001 19.73 C 88.412 19.73 88.67000000000002 19.658 88.89800000000001 19.514 C 89.126 19.358 89.30600000000001 19.154 89.43800000000002 18.902 C 89.58504973061555 18.638133739623637 89.65957740448367 18.34002304415116 89.65400000000001 18.038 C 89.65400000000001 17.714 89.58200000000001 17.432 89.43800000000002 17.192 C 89.31727053575321 16.95197218422914 89.12974789642072 16.751948035607818 88.89800000000001 16.616 C 88.66620198436647 16.470925791060573 88.39742308092359 16.39591772498349 88.12400000000001 16.4 L 85.748 16.4 L 85.748 19.729999999999997 Z M 106.227 26.57 L 106.227 13.25 L 108.783 13.25 L 108.783 26.57 L 106.227 26.57 Z" stroke-linecap="round" />
</g>
		<g transform="matrix(1 0 0 1 44.34 1.8)"  >
<path style="stroke: none; stroke-width: 1; stroke-dasharray: none; stroke-linecap: butt; stroke-dashoffset: 0; stroke-linejoin: miter; stroke-miterlimit: 4; fill: rgb(37,99,235); fill-rule: evenodd; opacity: 1;" vector-effect="non-scaling-stroke"  transform=" translate(-98.74, -21.8)" d="M 95.906 26.102 C 96.542 26.534 97.256 26.75 98.048 26.75 C 98.492 26.75 98.912 26.684 99.308 26.552 C 99.68660296637746 26.41714966125993 100.0441643371494 26.229278432549247 100.37 25.994 C 100.63169030829567 25.802373671698415 100.86762856236739 25.57786262651336 101.072 25.326 L 101.072 26.57 L 103.646 26.57 L 103.646 17.048000000000002 L 101.108 17.048000000000002 L 101.108 18.296000000000003 C 100.92241558171474 18.044542566951986 100.70454494101978 17.81860264326832 100.46000000000001 17.624000000000002 C 100.15603819070209 17.375275685321945 99.80798013010592 17.18598095061175 99.43400000000001 17.066000000000003 C 99.02449168706389 16.917595129680013 98.59153406122921 16.844419192919222 98.156 16.85 C 97.328 16.85 96.59 17.066000000000003 95.94200000000001 17.498 C 95.29400000000001 17.918000000000003 94.778 18.5 94.394 19.244 C 94.022 19.976 93.836 20.822 93.836 21.782 C 93.836 22.742 94.022 23.594 94.394 24.338 C 94.766 25.082 95.27000000000001 25.67 95.906 26.102 Z M 100.01 24.194 C 99.65 24.422 99.23 24.535999999999998 98.75 24.535999999999998 C 98.282 24.535999999999998 97.868 24.421999999999997 97.508 24.194 C 97.15133769073499 23.956125217585676 96.86532192055463 23.626585308464833 96.67999999999999 23.24 C 96.476 22.819999999999997 96.374 22.334 96.374 21.782 C 96.374 21.242 96.476 20.768 96.67999999999999 20.36 C 96.88399999999999 19.951999999999998 97.16 19.634 97.508 19.406 C 97.868 19.166 98.282 19.046 98.75 19.046 C 99.23 19.046 99.65 19.166 100.01 19.406 C 100.37 19.634 100.646 19.951999999999998 100.83800000000001 20.36 C 101.042 20.768 101.144 21.242 101.144 21.782 C 101.144 22.334 101.042 22.82 100.83800000000001 23.24 C 100.66030322268215 23.631533973512028 100.37263467779968 23.962978166528778 100.01 24.194 Z" stroke-linecap="round" />
</g>
		<g transform="matrix(1 0 0 1 16.52 1.83)"  >
<path style="stroke: none; stroke-width: 1; stroke-dasharray: none; stroke-linecap: butt; stroke-dashoffset: 0; stroke-linejoin: miter; stroke-miterlimit: 4; fill: rgb(15,23,42); fill-rule: evenodd; opacity: 1;" vector-effect="non-scaling-stroke"  transform=" translate(-70.91, -21.84)" d="M 76.322 23.197 L 78.917 26.57 L 81.185 26.57 L 77.523 21.783 L 80.86099999999999 17.12 L 78.66499999999999 17.12 L 76.50299999999999 20.454 L 73.94899999999998 17.12 L 71.60899999999998 17.12 L 75.26099999999998 21.830000000000002 L 71.62699999999998 26.57 L 73.82299999999998 26.57 L 76.32299999999998 23.197 Z M 62.738 26.102 C 63.37022893372717 26.52924802896096 64.11696148382366 26.755150313023766 64.88 26.75 C 65.336 26.75 65.768 26.678 66.176 26.534 C 66.596 26.39 66.974 26.198 67.31 25.958 C 67.64504644105801 25.732868554838053 67.93756530604415 25.450168031385015 68.174 25.122999999999998 L 68.174 26.569999999999997 L 70.046 26.569999999999997 L 70.046 17.119999999999997 L 68.174 17.119999999999997 L 68.174 18.569999999999997 C 67.98406845665457 18.25646766682783 67.74033651438907 17.97888406591435 67.45400000000001 17.749999999999996 C 67.14274185471298 17.479474796548228 66.78212773431979 17.27166326954198 66.39200000000001 17.137999999999998 C 65.95757214588534 16.989694756429063 65.50101343505466 16.91664536269615 65.04200000000002 16.921999999999997 C 64.21400000000001 16.921999999999997 63.46400000000001 17.131999999999998 62.792000000000016 17.551999999999996 C 62.13200000000002 17.971999999999998 61.60400000000001 18.553999999999995 61.20800000000001 19.297999999999995 C 60.82400000000001 20.029999999999994 60.63200000000001 20.869999999999994 60.63200000000001 21.817999999999994 C 60.63200000000001 22.753999999999994 60.82400000000001 23.593999999999994 61.20800000000001 24.337999999999994 C 61.59200000000001 25.081999999999994 62.10200000000001 25.669999999999995 62.738000000000014 26.101999999999993 Z M 66.86 24.626 C 66.428 24.902 65.92999999999999 25.040000000000003 65.366 25.040000000000003 C 64.84419983528933 25.04854089092293 64.33124304147543 24.904662765828782 63.89 24.626 C 63.461998034218865 24.34105803010712 63.114797312043414 23.950457217659743 62.882 23.492 C 62.641999999999996 23 62.522 22.442 62.522 21.818 C 62.522 21.206000000000003 62.641999999999996 20.66 62.882 20.18 C 63.134 19.7 63.47 19.322 63.89 19.046 C 64.33124304147543 18.76733723417122 64.84419983528933 18.62345910907707 65.366 18.631999999999998 C 65.92999999999999 18.631999999999998 66.428 18.77 66.86 19.046 C 67.292 19.322 67.628 19.7 67.868 20.18 C 68.11999999999999 20.66 68.246 21.206 68.246 21.817999999999998 C 68.246 22.441999999999997 68.11999999999999 22.999999999999996 67.868 23.491999999999997 C 67.628 23.971999999999998 67.292 24.349999999999998 66.86 24.625999999999998 Z" stroke-linecap="round" />
</g>
</g>
</g>
<g transform="matrix(5.83 0 0 3.02 718.66 451.39)" id="cf6f34da-9bf8-4288-9029-bcd8c34cff5c"  >
<rect style="stroke: rgb(0,0,0); stroke-width: 0; stroke-dasharray: none; stroke-linecap: butt; stroke-dashoffset: 0; stroke-linejoin: miter; stroke-miterlimit: 4; fill: rgb(36,98,235); fill-rule: nonzero; opacity: 1;" vector-effect="non-scaling-stroke"  x="-37.46" y="-19.415" rx="0" ry="0" width="74.92" height="38.83" />
</g>
<g transform="matrix(0.6 0 0 0.6 716.21 475.63)" style="" id="5a48a88e-e09c-4060-b4fc-0edbaef671bd"  >
		<text xml:space="preserve" font-family="Raleway" font-size="105" font-style="normal" font-weight="900" style="stroke: none; stroke-width: 1; stroke-dasharray: none; stroke-linecap: butt; stroke-dashoffset: 0; stroke-linejoin: miter; stroke-miterlimit: 4; fill: rgb(255,255,255); fill-rule: nonzero; opacity: 1; white-space: pre;" ><tspan x="-343.35" y="32.98" >Chat-Scholar</tspan></text>
</g>
<g transform="matrix(0.75 0 0 0.72 844.59 425.32)"  >
<g style="" vector-effect="non-scaling-stroke"   >
		<g transform="matrix(1 0 0 1 0.86 5.92)"  >
<path style="stroke: none; stroke-width: 1; stroke-dasharray: none; stroke-linecap: butt; stroke-dashoffset: 0; stroke-linejoin: miter; stroke-miterlimit: 4; fill: rgb(255,255,255); fill-rule: nonzero; opacity: 1;" vector-effect="non-scaling-stroke"  transform=" translate(-50.86, -55.92)" d="M 50.861 87.432 L 46.214999999999996 87.432 L 42.589999999999996 82.34400000000001 C 42.589999999999996 73.18400000000001 41.827 64.72600000000001 36.92699999999999 59.95500000000001 C 32.855999999999995 56.201000000000015 30.313999999999993 50.85900000000001 30.313999999999993 44.942000000000014 C 30.313999999999993 33.622000000000014 39.535 24.399000000000015 50.85999999999999 24.399000000000015 C 62.17999999999999 24.399000000000015 71.401 33.622000000000014 71.401 44.942000000000014 C 71.401 50.859000000000016 68.859 56.201000000000015 64.788 59.95500000000001 C 59.891999999999996 64.72600000000001 59.126 73.18400000000001 59.126 82.34400000000001 L 55.501 87.432 L 50.861 87.432 z M 44.625 74.33 L 57.093 74.33 C 57.794000000000004 67.77799999999999 59.574000000000005 60.908 62.81700000000001 57.792 C 66.31500000000001 54.547000000000004 68.48 49.969 68.48 44.879000000000005 C 68.48 35.148 60.591 27.261000000000006 50.86200000000001 27.261000000000006 C 41.12800000000001 27.261000000000006 33.239000000000004 35.148 33.239000000000004 44.879000000000005 C 33.239000000000004 49.96900000000001 35.404 54.547000000000004 38.84 57.792 C 42.083 60.908 43.928 67.778 44.625 74.33 z" stroke-linecap="round" />
</g>
		<g transform="matrix(1 0 0 1 27.51 -6.08)"  >
<path style="stroke: none; stroke-width: 1; stroke-dasharray: none; stroke-linecap: butt; stroke-dashoffset: 0; stroke-linejoin: miter; stroke-miterlimit: 4; fill: rgb(255,255,255); fill-rule: nonzero; opacity: 1;" vector-effect="non-scaling-stroke"  transform=" translate(-77.51, -43.93)" d="M 80.181 45.262 L 74.838 45.262 C 74.076 45.262 73.502 44.688 73.502 43.926 C 73.502 43.227000000000004 74.076 42.589 74.838 42.589 L 80.181 42.589 C 80.944 42.589 81.518 43.227 81.518 43.926 C 81.518 44.688 80.943 45.262 80.181 45.262 z" stroke-linecap="round" />
</g>
		<g transform="matrix(1 0 0 1 -27.51 -6.08)"  >
<path style="stroke: none; stroke-width: 1; stroke-dasharray: none; stroke-linecap: butt; stroke-dashoffset: 0; stroke-linejoin: miter; stroke-miterlimit: 4; fill: rgb(255,255,255); fill-rule: nonzero; opacity: 1;" vector-effect="non-scaling-stroke"  transform=" translate(-22.49, -43.93)" d="M 25.162 45.262 L 19.82 45.262 C 19.057 45.262 18.483 44.688 18.483 43.926 C 18.483 43.227000000000004 19.057000000000002 42.589 19.82 42.589 L 25.162 42.589 C 25.863 42.589 26.499 43.227 26.499 43.926 C 26.499 44.688 25.863 45.262 25.162 45.262 z" stroke-linecap="round" />
</g>
		<g transform="matrix(1 0 0 1 19.44 -25.51)"  >
<path style="stroke: none; stroke-width: 1; stroke-dasharray: none; stroke-linecap: butt; stroke-dashoffset: 0; stroke-linejoin: miter; stroke-miterlimit: 4; fill: rgb(255,255,255); fill-rule: nonzero; opacity: 1;" vector-effect="non-scaling-stroke"  transform=" translate(-69.44, -24.49)" d="M 72.297 23.571 L 68.47999999999999 27.325000000000003 C 67.97099999999999 27.833000000000002 67.14299999999999 27.833000000000002 66.63399999999999 27.325000000000003 C 66.05999999999999 26.816000000000003 66.05999999999999 25.988000000000003 66.63399999999999 25.416000000000004 L 70.38599999999998 21.665000000000003 C 70.89399999999998 21.154000000000003 71.78799999999998 21.154000000000003 72.29699999999998 21.665000000000003 C 72.805 22.173 72.805 23.063 72.297 23.571 z" stroke-linecap="round" />
</g>
		<g transform="matrix(1 0 0 1 -19.46 13.42)"  >
<path style="stroke: none; stroke-width: 1; stroke-dasharray: none; stroke-linecap: butt; stroke-dashoffset: 0; stroke-linejoin: miter; stroke-miterlimit: 4; fill: rgb(255,255,255); fill-rule: nonzero; opacity: 1;" vector-effect="non-scaling-stroke"  transform=" translate(-30.54, -63.42)" d="M 33.366 62.436 L 29.615 66.251 C 29.046 66.76100000000001 28.217 66.76100000000001 27.709 66.251 C 27.201 65.742 27.201 64.85300000000001 27.709 64.34400000000001 L 31.46 60.59100000000001 C 31.968 60.08200000000001 32.858000000000004 60.08200000000001 33.366 60.59100000000001 C 33.879 61.099 33.879 61.927 33.366 62.436 z" stroke-linecap="round" />
</g>
		<g transform="matrix(1 0 0 1 19.44 13.42)"  >
<path style="stroke: none; stroke-width: 1; stroke-dasharray: none; stroke-linecap: butt; stroke-dashoffset: 0; stroke-linejoin: miter; stroke-miterlimit: 4; fill: rgb(255,255,255); fill-rule: nonzero; opacity: 1;" vector-effect="non-scaling-stroke"  transform=" translate(-69.44, -63.42)" d="M 70.386 66.251 L 66.634 62.43600000000001 C 66.06 61.92700000000001 66.06 61.099000000000004 66.634 60.59100000000001 C 67.143 60.08200000000001 67.971 60.08200000000001 68.48 60.59100000000001 L 72.297 64.34400000000001 C 72.80499999999999 64.85300000000001 72.80499999999999 65.742 72.297 66.251 C 71.788 66.761 70.894 66.761 70.386 66.251 z" stroke-linecap="round" />
</g>
		<g transform="matrix(1 0 0 1 -19.46 -25.51)"  >
<path style="stroke: none; stroke-width: 1; stroke-dasharray: none; stroke-linecap: butt; stroke-dashoffset: 0; stroke-linejoin: miter; stroke-miterlimit: 4; fill: rgb(255,255,255); fill-rule: nonzero; opacity: 1;" vector-effect="non-scaling-stroke"  transform=" translate(-30.54, -24.49)" d="M 31.459 27.325 L 27.708 23.570999999999998 C 27.2 23.063 27.2 22.173 27.708 21.665 C 28.215999999999998 21.154 29.044999999999998 21.154 29.613999999999997 21.665 L 33.364999999999995 25.416 C 33.87799999999999 25.988 33.87799999999999 26.816 33.364999999999995 27.325 C 32.857 27.833 31.968 27.833 31.459 27.325 z" stroke-linecap="round" />
</g>
		<g transform="matrix(1 0 0 1 1.3 -33.39)"  >
<path style="stroke: none; stroke-width: 1; stroke-dasharray: none; stroke-linecap: butt; stroke-dashoffset: 0; stroke-linejoin: miter; stroke-miterlimit: 4; fill: rgb(255,255,255); fill-rule: nonzero; opacity: 1;" vector-effect="non-scaling-stroke"  transform=" translate(-51.3, -16.61)" d="M 49.967 19.311 L 49.967 13.902999999999999 C 49.967 13.203999999999999 50.541 12.568999999999999 51.303 12.568999999999999 C 52.004 12.568999999999999 52.64 13.203999999999999 52.64 13.902999999999999 L 52.64 19.311 C 52.64 20.01 52.004 20.645 51.303 20.645 C 50.541 20.646 49.967 20.01 49.967 19.311 z" stroke-linecap="round" />
</g>
</g>
</g>
<g transform="matrix(0.59 0 0 0.59 585.05 474.63)" style="" id="1ab68cf3-490a-4640-98ba-9bd38c7ad417"  >
		<text xml:space="preserve" font-family="Raleway" font-size="105" font-style="normal" font-weight="900" style="stroke: none; stroke-width: 1; stroke-dasharray: none; stroke-linecap: butt; stroke-dashoffset: 0; stroke-linejoin: miter; stroke-miterlimit: 4; fill: rgb(0,0,0); fill-rule: nonzero; opacity: 1; white-space: pre;" ><tspan x="-122.22" y="32.98" >Chat</tspan></text>
</g>
</svg>